<?xml version="1.0" encoding="UTF-8"?>
<svg id="Layer_1" data-name="Layer 1" xmlns="http://www.w3.org/2000/svg" viewBox="0 0 1673 872.25">
  <g>
    <circle cx="40" cy="89.25" r="40" style="fill: #7bc043;"/>
    <circle cx="130" cy="89.25" r="40" style="fill: #7bc043;"/>
    <circle cx="130" cy="174.25" r="40" style="fill: #7bc043;"/>
    <circle cx="218" cy="174.25" r="40" style="fill: #7bc043;"/>
    <circle cx="306" cy="174.25" r="40" style="fill: #7bc043;"/>
  </g>
  <g>
    <circle cx="407" cy="40" r="40" style="fill: #6ec6ff;"/>
    <circle cx="494.16" cy="40.09" r="40" style="fill: #6ec6ff;"/>
    <circle cx="580" cy="40.09" r="40" style="fill: #6ec6ff;"/>
    <circle cx="580" cy="127" r="40" style="fill: #6ec6ff;"/>
    <circle cx="580" cy="208.5" r="40" style="fill: #6ec6ff;"/>
  </g>
  <g>
    <circle cx="786" cy="64.25" r="40" style="fill: #3f51b5;"/>
    <circle cx="873" cy="64.25" r="40" style="fill: #3f51b5;"/>
    <circle cx="959" cy="64.25" r="40" style="fill: #3f51b5;"/>
    <circle cx="1046" cy="64.25" r="40" style="fill: #3f51b5;"/>
  </g>
  <g>
    <circle cx="1286" cy="64.25" r="40" style="fill: #ff9800;"/>
    <circle cx="1286" cy="151.25" r="40" style="fill: #ff9800;"/>
    <circle cx="1460" cy="151.25" r="40" style="fill: #ff9800;"/>
    <circle cx="1372" cy="151.25" r="40" style="fill: #ff9800;"/>
  </g>
  <g>
    <circle cx="186" cy="314.25" r="40" style="fill: #e0e0e0;"/>
    <circle cx="86" cy="414.25" r="40" style="fill: #e0e0e0;"/>
    <circle cx="186" cy="414.25" r="40" style="fill: #e0e0e0;"/>
    <circle cx="286" cy="414.25" r="40" style="fill: #e0e0e0;"/>
    <circle cx="186" cy="514.25" r="40" style="fill: #e0e0e0;"/>
  </g>
  <g>
    <circle cx="444.16" cy="364.25" r="40" style="fill: #f44336;"/>
    <circle cx="536" cy="364.25" r="40" style="fill: #f44336;"/>
    <circle cx="444.16" cy="454.25" r="40" style="fill: #f44336;"/>
    <circle cx="536" cy="454.25" r="40" style="fill: #f44336;"/>
    <circle cx="626" cy="454.25" r="40" style="fill: #f44336;"/>
  </g>
  <g>
    <circle cx="846" cy="491.25" r="40" style="fill: #0288d1;"/>
    <circle cx="844" cy="582.25" r="40" style="fill: #0288d1;"/>
    <circle cx="846" cy="674.25" r="40" style="fill: #0288d1;"/>
    <circle cx="846" cy="764.25" r="40" style="fill: #0288d1;"/>
    <circle cx="757" cy="764.25" r="40" style="fill: #0288d1;"/>
  </g>
  <g>
    <circle cx="1086" cy="314.25" r="40" style="fill: #f8bbd0;"/>
    <circle cx="1171" cy="314.25" r="40" style="fill: #f8bbd0;"/>
    <circle cx="1260" cy="312.25" r="40" style="fill: #f8bbd0;"/>
    <circle cx="1260" cy="400.25" r="40" style="fill: #f8bbd0;"/>
    <circle cx="1346" cy="314.25" r="40" style="fill: #f8bbd0;"/>
  </g>
  <g>
    <circle cx="1633" cy="382.25" r="40" style="fill: #ffeb3b;"/>
    <circle cx="1547" cy="382.25" r="40" style="fill: #ffeb3b;"/>
    <circle cx="1633" cy="551.25" r="40" style="fill: #ffeb3b;"/>
    <circle cx="1547" cy="551.25" r="40" style="fill: #ffeb3b;"/>
    <circle cx="1633" cy="465.25" r="40" style="fill: #ffeb3b;"/>
  </g>
  <g>
    <circle cx="86" cy="664.25" r="40" style="fill: #ec407a;"/>
    <circle cx="170" cy="664.25" r="40" style="fill: #ec407a;"/>
    <circle cx="257" cy="747.25" r="40" style="fill: #ec407a;"/>
    <circle cx="257" cy="832.25" r="40" style="fill: #ec407a;"/>
    <circle cx="170" cy="747.25" r="40" style="fill: #ec407a;"/>
  </g>
  <g>
    <circle cx="484.16" cy="674.25" r="40" style="fill: #fafafa;"/>
    <circle cx="576" cy="764.25" r="40" style="fill: #fafafa;"/>
    <circle cx="486" cy="764.25" r="40" style="fill: #fafafa;"/>
  </g>
  <g>
    <circle cx="1086" cy="514.25" r="40" style="fill: #8bc34a;"/>
    <circle cx="1186" cy="514.25" r="40" style="fill: #8bc34a;"/>
    <circle cx="1086" cy="614.25" r="40" style="fill: #8bc34a;"/>
    <circle cx="1186" cy="614.25" r="40" style="fill: #8bc34a;"/>
  </g>
</svg>